<?xml version="1.0" encoding="UTF-8" standalone="no"?>
<!-- Created with Inkscape (http://www.inkscape.org/) -->

<svg
   xmlns:dc="http://purl.org/dc/elements/1.1/"
   xmlns:cc="http://creativecommons.org/ns#"
   xmlns:rdf="http://www.w3.org/1999/02/22-rdf-syntax-ns#"
   xmlns:svg="http://www.w3.org/2000/svg"
   xmlns="http://www.w3.org/2000/svg"
   xmlns:sodipodi="http://sodipodi.sourceforge.net/DTD/sodipodi-0.dtd"
   xmlns:inkscape="http://www.inkscape.org/namespaces/inkscape"
   width="128"
   height="128"
   viewBox="0 0 33.866666 33.866668"
   version="1.1"
   id="svg8"
   inkscape:version="0.92.4 (5da689c313, 2019-01-14)"
   sodipodi:docname="logo.svg">
  <defs
     id="defs2" />
  <sodipodi:namedview
     id="base"
     pagecolor="#ffffff"
     bordercolor="#666666"
     borderopacity="1.0"
     inkscape:pageopacity="0.0"
     inkscape:pageshadow="2"
     inkscape:zoom="3.959798"
     inkscape:cx="57.915092"
     inkscape:cy="21.565006"
     inkscape:document-units="mm"
     inkscape:current-layer="layer1"
     showgrid="false"
     units="px"
     inkscape:window-width="1920"
     inkscape:window-height="1001"
     inkscape:window-x="-3"
     inkscape:window-y="1341"
     inkscape:window-maximized="1" />
  <metadata
     id="metadata5">
    <rdf:RDF>
      <cc:Work
         rdf:about="">
        <dc:format>image/svg+xml</dc:format>
        <dc:type
           rdf:resource="http://purl.org/dc/dcmitype/StillImage" />
        <dc:title></dc:title>
      </cc:Work>
    </rdf:RDF>
  </metadata>
  <g
     inkscape:label="Layer 1"
     inkscape:groupmode="layer"
     id="layer1"
     transform="translate(0,-263.13332)">
    <g
       transform="matrix(0.12892913,0,0,0.13248175,-46.935928,191.28205)"
       inkscape:label="Layer 1"
       id="layer1-9">
      <g
         id="g3031">
        <flowRoot
           transform="translate(0,287.36)"
           xml:space="preserve"
           style="line-height:0.01%;font-family:'Standard Symbols L';letter-spacing:0px;word-spacing:0px;fill:#000000"
           id="flowRoot2982">
        <flowRegion
   id="flowRegion2984">
          <rect
   height="415.17001"
   width="405.64001"
   x="246.38"
   y="142.92999"
   id="rect2986" />
        </flowRegion>
        <flowPara
   style="font-size:102.59999847px;line-height:1.25"
   id="flowPara2988">SS.O.P.A.Sto</flowPara>
      </flowRoot>        <path
           sodipodi:sides="8"
           sodipodi:r2="125.9165"
           inkscape:rounded="0"
           sodipodi:cx="325.32919"
           sodipodi:cy="352.55338"
           inkscape:randomized="0"
           sodipodi:arg1="0.52359878"
           sodipodi:arg2="0.91629786"
           transform="matrix(0.99127,-0.13184,0.13184,0.99127,126.03,363.28)"
           inkscape:flatsided="true"
           sodipodi:r1="136.29105"
           d="m 443.3607,420.6989 -82.75679,63.50152 -103.42024,-13.61554 -63.50152,-82.75679 13.61554,-103.42024 82.75679,-63.50152 103.42024,13.61554 63.50151,82.75679 z"
           sodipodi:type="star"
           style="fill:#e80808"
           id="path3030" />
        <path
           inkscape:radius="-4.4900055"
           transform="matrix(0.99127,-0.13184,0.13184,0.99127,126.02,363.27)"
           inkscape:original="M 290.0625 220.90625 L 207.3125 284.40625 L 193.6875 387.8125 L 257.1875 470.59375 L 360.59375 484.1875 L 443.375 420.6875 L 456.96875 317.28125 L 393.46875 234.53125 L 290.0625 220.90625 z "
           d="m 291.32227,225.59961 -79.80079,61.23633 -13.13867,99.71875 61.23438,79.83008 99.71875,13.10937 79.83008,-61.23633 13.10937,-99.71875 -61.23633,-79.79883 z"
           sodipodi:type="inkscape:offset"
           style="fill:#ffffff"
           id="path3038" />
        <path
           inkscape:radius="-8.5289392"
           transform="matrix(0.99127,-0.13184,0.13184,0.99127,126.02,363.27)"
           inkscape:original="M 290.0625 220.90625 L 207.3125 284.40625 L 193.6875 387.8125 L 257.1875 470.59375 L 360.59375 484.1875 L 443.375 420.6875 L 456.96875 317.28125 L 393.46875 234.53125 L 290.0625 220.90625 z "
           d="m 292.45117,229.82227 -77.14453,59.19921 -12.70117,96.40235 59.19726,77.17383 96.40235,12.67382 77.17383,-59.19921 12.67382,-96.40039 -59.19921,-77.14649 z"
           sodipodi:type="inkscape:offset"
           style="fill:#e80808"
           id="path3042" />
        <g
           transform="translate(205.57,421.94)"
           style="fill:#ffffff"
           id="flowRoot3004" />
      </g>
    </g>
    <path
       style="color:#000000;display:inline;overflow:visible;visibility:visible;fill:#ffffff;stroke:none;stroke-width:0.0345735;marker:none;enable-background:accumulate"
       d="m 18.77454,278.67965 v -11.29401 c 0,-0.7659 -0.617031,-1.38294 -1.382938,-1.38294 -0.765912,0 -1.382941,0.61704 -1.382941,1.38294 v 11.26161 c 0,0.17934 -0.144764,0.32411 -0.325929,0.32411 -0.181163,0 -0.325927,-0.14477 -0.325927,-0.32411 v -9.63737 c 0,-0.76591 -0.617036,-1.38295 -1.382935,-1.38295 -0.765914,0 -1.382944,0.61704 -1.382944,1.38295 v 10.01549 c 0,0.17958 -0.144558,0.32414 -0.324125,0.32414 -0.179567,0 -0.324127,-0.14456 -0.324127,-0.32414 v -6.56536 c 0,-0.65515 -0.526102,-1.18486 -1.181267,-1.18486 -0.655157,0 -1.2010655,0.52971 -1.2010655,1.18486 v 13.64213 c 0,4.10358 3.3135145,7.42971 7.4170975,7.42971 3.506467,0 6.155095,-2.51296 7.224422,-5.69743 l 3.601406,-10.72499 c -1.338771,-0.36863 -3.410937,-0.15234 -4.192035,2.38414 l -0.669863,2.17525 c -0.133154,0.43237 -0.752694,0.34887 -0.752694,-0.10079 v -12.3312 c 0,-0.76592 -0.617036,-1.38294 -1.382942,-1.38294 -0.765906,0 -1.382942,0.61702 -1.382942,1.38294 v 9.44287 c 0,0.1784 -0.142107,0.32414 -0.324126,0.32414 -0.182013,0 -0.324125,-0.14574 -0.324125,-0.32414 z"
       id="path3977-0"
       inkscape:connector-curvature="0"
       sodipodi:nodetypes="ssssssssssssssssssscsssssssss" />
    <g
       transform="matrix(0.01510857,0,0,0.01510857,28.663078,287.47905)"
       id="layer1-2"
       style="fill:#e80808;fill-opacity:1">
      <g
         transform="matrix(0,-17.254,17.254,0,10443,-2252.9)"
         id="g11676"
         style="fill:#e80808;fill-opacity:1">
        <path
           transform="translate(1.1045,-949.48)"
           style="color:#000000;fill:#e80808;fill-opacity:1"
           d="m -134.38,309.5 c 0,4.1683 -3.3791,7.5474 -7.5474,7.5474 -4.1683,0 -7.5474,-3.3791 -7.5474,-7.5474 0,-4.1683 3.3791,-7.5474 7.5474,-7.5474 4.1683,0 7.5474,3.3791 7.5474,7.5474 z"
           id="path11666"
           inkscape:connector-curvature="0" />
        <path
           transform="translate(32.767,-949.48)"
           style="color:#000000;fill:#e80808;fill-opacity:1"
           d="m -134.38,309.5 c 0,4.1683 -3.3791,7.5474 -7.5474,7.5474 -4.1683,0 -7.5474,-3.3791 -7.5474,-7.5474 0,-4.1683 3.3791,-7.5474 7.5474,-7.5474 4.1683,0 7.5474,3.3791 7.5474,7.5474 z"
           id="path11668"
           inkscape:connector-curvature="0" />
        <path
           transform="translate(16.936,-976.35)"
           style="color:#000000;fill:#e80808;fill-opacity:1"
           d="m -134.38,309.5 c 0,4.1683 -3.3791,7.5474 -7.5474,7.5474 -4.1683,0 -7.5474,-3.3791 -7.5474,-7.5474 0,-4.1683 3.3791,-7.5474 7.5474,-7.5474 4.1683,0 7.5474,3.3791 7.5474,7.5474 z"
           id="path11670"
           inkscape:connector-curvature="0" />
        <rect
           x="488.22"
           y="-443.73001"
           width="27.691999"
           height="3"
           transform="rotate(-60.001)"
           style="color:#000000;fill:#e80808;fill-opacity:1"
           id="rect11672" />
        <rect
           x="613.15997"
           y="-226.89999"
           width="27.691999"
           height="3"
           transform="matrix(-0.5,-0.86603,-0.86603,0.5,0,0)"
           style="color:#000000;fill:#e80808;fill-opacity:1"
           id="rect11674" />
      </g>
    </g>
  </g>
</svg>
